AWAYDAYS DVDrip

Format                           : AVI
Format/Info                      : Audio Video Interleave
File size                        : 600 MiB
Duration                         : 1h 40mn
Overall bit rate                 : 832 Kbps
Writing application              : MEncoder SVN-r29352(20090610-gcc4.3.3)
Writing library                  : MPlayer

Video
ID                               : 0
Format                           : MPEG-4 Visual
Format profile                   : AdvancedSimple@L5
Format settings, BVOP            : Yes
Format settings, QPel            : No
Format settings, GMC             : No warppoints
Format settings, Matrix          : Default (H.263)
Codec ID                         : XVID
Codec ID/Hint                    : XviD
Duration                         : 1h 40mn
Bit rate                         : 692 Kbps
Width                            : 624 pixels
Height                           : 336 pixels
Display aspect ratio             : 1.857
Frame rate                       : 25.000 fps
Resolution                       : 24 bits
Colorimetry                      : 4:2:0
Scan type                        : Progressive
Bits/(Pixel*Frame)               : 0.132
Stream size                      : 499 MiB (83%)
Writing library                  : XviD 1.2.1 (UTC 2008-12-04)

Audio
ID                               : 1
Format                           : MPEG Audio
Format version                   : Version 1
Format profile                   : Layer 3
Codec ID                         : 55
Codec ID/Hint                    : MP3
Duration                         : 1h 40mn
Bit rate mode                    : Constant
Bit rate                         : 128 Kbps
Channel(s)                       : 2 channels
Sampling rate                    : 44.1 KHz
Resolution                       : 16 bits
Video delay                      : 40ms
Stream size                      : 92.3 MiB (15%)
Alignment                        : Aligned on interleaves
Interleave, duration             : 26 ms (0.65 video frame)
Interleave, preload duration     : 522 ms
Writing library                  : LAME3.98

Plot

Awaydays is filmed on the Wirral Peninsula. Set in the North West of England during the post-punk era, 'Awaydays' tells the story of Paul Carty – a 19-year-old who spends all his money on gigs, clubs, records and football.

At a gig he meets Elvis, who is part of a legendary gang known as The Pack, a firm attached to Tranmere Rovers F.C.. With their own unique, cool style – a style that’s at odds with the Boneheads they fight against. They dress themselves in Adidas Jackets and trainers, and arm themselves with Stanley Knives - The Pack have always impressed Carty. Now his new friend Elvis is offering him a way in.
 
http://www.imdb.com/title/tt1137436/

PLEASE SEED AND ENJOY THANKS

screens
 
http://img27.imageshack.us/img27/1978/vlcsnap2010012515h14m59.png 
http://img688.imageshack.us/img688/279/vlcsnap2010012515h16m23.png 
http://img10.imageshack.us/img10/4363/vlcsnap2010012515h18m55.png 
http://img526.imageshack.us/img526/3617/vlcsnap2010012515h19m12.png